<svg xmlns="http://www.w3.org/2000/svg" version="1.1" xmlns:xlink="http://www.w3.org/1999/xlink" xmlns:svgjs="http://svgjs.dev/svgjs" width="1500" height="526" viewBox="0 0 1500 526"><g transform="matrix(1,0,0,1,-0.9090909090909918,-1.5612744931133307)"><svg viewBox="0 0 396 139" data-background-color="#af6834" preserveAspectRatio="xMidYMid meet" height="526" width="1500" xmlns="http://www.w3.org/2000/svg" xmlns:xlink="http://www.w3.org/1999/xlink"><g id="tight-bounds" transform="matrix(1,0,0,1,0.2400000000000091,0.412580141716262)"><svg viewBox="0 0 395.52 138.17483971656745" height="138.17483971656745" width="395.52"><g><svg viewBox="0 0 682.5958371492243 238.46473095997735" height="138.17483971656745" width="395.52"><g><rect width="8.351517472785943" height="238.46473095997735" x="259.1269228148834" y="0" fill="#211f1f" opacity="1" stroke-width="0" stroke="transparent" fill-opacity="1" class="rect-yte-0" data-fill-palette-color="primary" rx="1%" id="yte-0" data-palette-color="#211f1f"></rect></g><g transform="matrix(1,0,0,1,289.3410514729729,0.5931958481591408)"><svg viewBox="0 0 393.25478567625134 237.27833926365906" height="237.27833926365906" width="393.25478567625134"><g id="textblocktransform"><svg viewBox="0 0 393.25478567625134 237.27833926365906" height="237.27833926365906" width="393.25478567625134" id="textblock"><g><svg viewBox="0 0 393.25478567625134 198.764" height="198.764" width="393.25478567625134"><g transform="matrix(1,0,0,1,0,0)"><svg width="393.25478567625134" viewBox="1.4600000000000044 -30.57 174.17 83.87" height="198.764" data-palette-color="#211f1f"><svg></svg><svg></svg><g class="wordmark-text-0" data-fill-palette-color="primary" id="text-0"><path d="M1.95 0h11.97c0-0.713-0.263-1.12-0.79-1.22v0c-0.16-0.033-0.32-0.05-0.48-0.05v0h-2.59v-26.76h3.86v-1.27h-11.97v1.27h3.91v26.76h-3.91zM25.15-0.83v0c2.247 0 3.76-0.683 4.54-2.05v0c0.293-0.487 0.44-1.023 0.44-1.61v0c0-1.367-0.993-2.54-2.98-3.52v0c-0.427-0.227-1.127-0.55-2.1-0.97v0c-2.673-1.107-4.447-2.15-5.32-3.13v0c-0.947-1.073-1.42-2.327-1.42-3.76v0c0-2.247 1.237-3.827 3.71-4.74v0c1.14-0.42 2.377-0.63 3.71-0.63v0c2.153 0 4.01 0.457 5.57 1.37v0c0-0.947 0.227-1.483 0.68-1.61v0c0.2-0.033 0.413-0.05 0.64-0.05v0 6.1h-1.27c-0.067-2.993-1.727-4.507-4.98-4.54v0c-2.44 0-3.953 0.717-4.54 2.15v0c-0.167 0.387-0.25 0.793-0.25 1.22v0c0 1.4 1.01 2.587 3.03 3.56v0c0.453 0.227 1.17 0.537 2.15 0.93v0c2.633 1.073 4.39 2.1 5.27 3.08v0c0.947 1.04 1.42 2.277 1.42 3.71v0c0 2.633-1.4 4.39-4.2 5.27v0c-1.073 0.36-2.247 0.54-3.52 0.54v0c-2.34-0.033-4.373-0.62-6.1-1.76v0c0 0.847-0.213 1.337-0.64 1.47v0c-0.193 0.027-0.42 0.04-0.68 0.04v0-7.42h1.37c0.067 4.2 1.89 6.317 5.47 6.35zM54.49 0.49v0c2.507 0 3.89-1.513 4.15-4.54v0c0.033-0.2 0.05-0.38 0.05-0.54v0l-1.27-0.05c-0.227 2.38-0.86 3.583-1.9 3.61v0c-0.847-0.06-1.287-0.903-1.32-2.53v0-10.31c0-4.653-2.327-7.11-6.98-7.37v0c-0.293 0-0.587 0-0.88 0v0c-3.647 0-6.09 0.847-7.33 2.54v0c-0.387 0.553-0.58 1.107-0.58 1.66v0c0 1.007 0.47 1.593 1.41 1.76v0c0.167 0.033 0.33 0.05 0.49 0.05v0c0.753 0 1.307-0.473 1.66-1.42v0c0.46-1.207 0.77-1.923 0.93-2.15v0c0.62-0.813 1.58-1.22 2.88-1.22v0c3.06 0.193 4.64 1.87 4.74 5.03v0 3.08c-7.653 0-12.033 1.593-13.14 4.78v0c-0.193 0.62-0.29 1.287-0.29 2v0c0 2.473 1.09 4.167 3.27 5.08v0c0.88 0.36 1.807 0.54 2.78 0.54v0c2.38 0 4.383-0.813 6.01-2.44v0c0.587-0.62 1.027-1.273 1.32-1.96v0c0.387 2.9 1.72 4.367 4 4.4zM44.78-1.46v0c-1.987 0-3.21-0.993-3.67-2.98v0c-0.093-0.46-0.14-0.967-0.14-1.52v0c0-2.18 1.253-3.563 3.76-4.15v0c1.333-0.293 3.27-0.457 5.81-0.49v0 3.91c-0.493 2.247-1.683 3.827-3.57 4.74v0c-0.747 0.327-1.477 0.49-2.19 0.49zM70.41-1.22v0h-2.44v-19.53h-7.57v1.22h3.91v15.38c0 1.5-0.507 2.41-1.52 2.73v0c-0.487 0.133-1.283 0.2-2.39 0.2v0 1.22h11.23c0-0.713-0.243-1.103-0.73-1.17v0c-0.167-0.033-0.33-0.05-0.49-0.05zM68.55-27.88v0c0-1.14-0.503-1.953-1.51-2.44v0c-0.387-0.167-0.76-0.25-1.12-0.25v0c-1.14 0-1.953 0.523-2.44 1.57v0c-0.167 0.353-0.25 0.727-0.25 1.12v0c0 1.207 0.537 2.037 1.61 2.49v0c0.36 0.127 0.72 0.19 1.08 0.19v0c1.14 0 1.937-0.52 2.39-1.56v0c0.16-0.353 0.24-0.727 0.24-1.12zM85.25-20.02v0c2.28 0 3.793 0.96 4.54 2.88v0c0.267 0.62 0.4 1.287 0.4 2v0c0 1.627-0.783 2.62-2.35 2.98v0c-0.813 0.167-1.967 0.233-3.46 0.2v0l-5.18-0.15c0.16-3.74 1.38-6.18 3.66-7.32v0c0.747-0.393 1.543-0.59 2.39-0.59zM93.75-4.69v0l-1.22-0.44c-1.14 2.473-2.98 3.873-5.52 4.2v0c-0.327 0.033-0.637 0.05-0.93 0.05v0c-3.413 0-5.56-2.033-6.44-6.1v0c-0.26-1.14-0.407-2.393-0.44-3.76v0l5.86 0.1c3.973 0.06 6.527-0.317 7.66-1.13v0c0.88-0.647 1.32-1.573 1.32-2.78v0c0-2.213-1.123-3.97-3.37-5.27v0c-1.593-0.947-3.43-1.42-5.51-1.42v0c-4.073 0-6.987 1.693-8.74 5.08v0c-0.913 1.753-1.37 3.737-1.37 5.95v0c0 4.04 1.447 7.037 4.34 8.99v0c1.727 1.14 3.697 1.71 5.91 1.71v0c3.52 0 6.11-1.27 7.77-3.81v0c0.26-0.453 0.487-0.91 0.68-1.37z" fill="#211f1f" fill-rule="nonzero" stroke="none" stroke-width="1" stroke-linecap="butt" stroke-linejoin="miter" stroke-miterlimit="10" stroke-dasharray="" stroke-dashoffset="0" font-family="none" font-weight="none" font-size="none" text-anchor="none" style="mix-blend-mode: normal" data-fill-palette-color="primary" opacity="1"></path><path transform="translate(0,44.02)" d="M38.13-28.03v-1.27h-7.81l-10.54 23.88-11.33-23.88h-6.99v1.27h3.91v26.76h-3.91v1.27h9.77c0-0.713-0.26-1.12-0.78-1.22v0c-0.16-0.033-0.323-0.05-0.49-0.05v0h-2.64v-21l10.7 22.51h1.02l11.28-25.14v23.63h-3.9v1.27h11.71c0-0.713-0.26-1.12-0.78-1.22v0c-0.16-0.033-0.32-0.05-0.48-0.05v0h-2.64v-26.76zM64.75-1.22v0h-2.45v-19.53h-7.66v1.22h4v10.55c0 2.927-1.023 5.073-3.07 6.44v0c-0.913 0.62-1.86 0.93-2.84 0.93v0c-2.667 0-4.21-1.367-4.63-4.1v0c-0.067-0.46-0.1-0.95-0.1-1.47v0-13.57h-7.42v1.22h3.76v11.62c0.027 5.567 2.353 8.367 6.98 8.4v0c2.44 0 4.44-0.993 6-2.98v0c0.587-0.747 1.06-1.577 1.42-2.49v0l0.34 4.98h6.89c0-0.713-0.247-1.103-0.74-1.17v0c-0.127-0.033-0.287-0.05-0.48-0.05zM73.63-13.53v0c0.067-4.293 1.697-6.457 4.89-6.49v0c3.187 0.067 4.797 2.23 4.83 6.49v0c-0.067 4.433-1.677 6.663-4.83 6.69v0c-3.227-0.06-4.857-2.29-4.89-6.69zM78.56-21.24v0c-2.927 0-5.253 0.943-6.98 2.83v0c-1.233 1.4-1.85 3.043-1.85 4.93v0c0 2.473 1.203 4.527 3.61 6.16v0c0.227 0.16 0.453 0.307 0.68 0.44v0c-2.08 0-3.38 0.893-3.9 2.68v0c-0.1 0.427-0.15 0.85-0.15 1.27v0c0.033 1.727 0.733 3.013 2.1 3.86v0c-1.073 1.14-1.61 2.293-1.61 3.46v0c0 1.793 1.057 3.13 3.17 4.01v0c1.333 0.587 2.977 0.88 4.93 0.88v0c4.953 0 8.227-1.207 9.82-3.62v0c0.52-0.813 0.78-1.673 0.78-2.58v0c0-2.8-1.61-4.413-4.83-4.84v0c-0.427-0.067-0.867-0.1-1.32-0.1v0l-8.89-0.19c-1.493-0.1-2.257-0.75-2.29-1.95v0c0-0.847 0.537-1.387 1.61-1.62v0c0.227-0.027 0.47-0.04 0.73-0.04v0l4.3 0.04c2.893 0 5.203-0.973 6.93-2.92v0c1.24-1.4 1.86-3.063 1.86-4.99v0c-0.033-2.44-0.98-4.39-2.84-5.85v0c0.293-1.047 0.847-1.667 1.66-1.86v0c0.133-0.033 0.263-0.05 0.39-0.05v0c0.46 0 0.95 0.243 1.47 0.73v0c0.36 0.327 0.687 0.49 0.98 0.49v0c0.813-0.193 1.283-0.713 1.41-1.56v0c0-1.007-0.47-1.69-1.41-2.05v0c-0.36-0.133-0.72-0.2-1.08-0.2v0c-1.527 0-2.763 0.683-3.71 2.05v0c-0.36 0.527-0.637 1.097-0.83 1.71v0c-1.467-0.747-3.047-1.12-4.74-1.12zM78.56 8.01v0c-3.22 0-5.253-0.847-6.1-2.54v0c-0.227-0.453-0.34-0.91-0.34-1.37v0c0.033-0.88 0.423-1.76 1.17-2.64v0c0.653 0.133 1.19 0.2 1.61 0.2v0l7.52 0.1c2.44 0.033 3.857 0.587 4.25 1.66v0c0.1 0.26 0.15 0.583 0.15 0.97v0c0 1.433-1.337 2.477-4.01 3.13v0c-1.3 0.327-2.717 0.49-4.25 0.49zM102.25-1.22v0h-2.45v-19.53h-7.56v1.22h3.9v15.38c0 1.5-0.503 2.41-1.51 2.73v0c-0.487 0.133-1.283 0.2-2.39 0.2v0 1.22h11.23c0-0.713-0.247-1.103-0.74-1.17v0c-0.16-0.033-0.32-0.05-0.48-0.05zM100.39-27.88v0c0-1.14-0.503-1.953-1.51-2.44v0c-0.393-0.167-0.77-0.25-1.13-0.25v0c-1.14 0-1.953 0.523-2.44 1.57v0c-0.16 0.353-0.24 0.727-0.24 1.12v0c0 1.207 0.537 2.037 1.61 2.49v0c0.36 0.127 0.717 0.19 1.07 0.19v0c1.14 0 1.94-0.52 2.4-1.56v0c0.16-0.353 0.24-0.727 0.24-1.12zM114.21-0.83v0c2.247 0 3.76-0.683 4.54-2.05v0c0.293-0.487 0.44-1.023 0.44-1.61v0c0-1.367-0.993-2.54-2.98-3.52v0c-0.42-0.227-1.12-0.55-2.1-0.97v0c-2.667-1.107-4.44-2.15-5.32-3.13v0c-0.947-1.073-1.42-2.327-1.42-3.76v0c0-2.247 1.237-3.827 3.71-4.74v0c1.14-0.42 2.377-0.63 3.71-0.63v0c2.153 0 4.01 0.457 5.57 1.37v0c0-0.947 0.227-1.483 0.68-1.61v0c0.2-0.033 0.413-0.05 0.64-0.05v0 6.1h-1.27c-0.067-2.993-1.727-4.507-4.98-4.54v0c-2.44 0-3.953 0.717-4.54 2.15v0c-0.167 0.387-0.25 0.793-0.25 1.22v0c0 1.4 1.01 2.587 3.03 3.56v0c0.46 0.227 1.177 0.537 2.15 0.93v0c2.64 1.073 4.397 2.1 5.27 3.08v0c0.947 1.04 1.42 2.277 1.42 3.71v0c0 2.633-1.4 4.39-4.2 5.27v0c-1.073 0.36-2.247 0.54-3.52 0.54v0c-2.34-0.033-4.373-0.62-6.1-1.76v0c0 0.847-0.21 1.337-0.63 1.47v0c-0.2 0.027-0.43 0.04-0.69 0.04v0-7.42h1.37c0.067 4.2 1.89 6.317 5.47 6.35zM135.79-1.22v0h-2.44v-10.55c0-2.96 1.027-5.107 3.08-6.44v0c0.847-0.553 1.723-0.83 2.63-0.83v0c1.987 0 3.37 0.927 4.15 2.78v0c0.36 0.88 0.54 1.857 0.54 2.93v0 9.18c0 1.5-0.357 2.397-1.07 2.69v0c-0.46 0.16-1.243 0.24-2.35 0.24v0 1.22h10.74c0-0.713-0.243-1.103-0.73-1.17v0c-0.127-0.033-0.29-0.05-0.49-0.05v0h-2.44v-12.11c0-3.547-1.17-5.957-3.51-7.23v0c-0.913-0.453-1.89-0.68-2.93-0.68v0c-2.413 0-4.433 0.88-6.06 2.64v0c-0.68 0.747-1.2 1.593-1.56 2.54v0-15.68h-7.32v1.22h3.66v26.37c0 1.5-0.423 2.397-1.27 2.69v0c-0.487 0.16-1.283 0.24-2.39 0.24v0 1.22h10.98c0-0.713-0.243-1.103-0.73-1.17v0c-0.133-0.033-0.297-0.05-0.49-0.05zM171.44 0.49v0c2.507 0 3.89-1.513 4.15-4.54v0c0.027-0.2 0.04-0.38 0.04-0.54v0l-1.26-0.05c-0.233 2.38-0.87 3.583-1.91 3.61v0c-0.847-0.06-1.287-0.903-1.32-2.53v0-10.31c0-4.653-2.327-7.11-6.98-7.37v0c-0.293 0-0.587 0-0.88 0v0c-3.647 0-6.087 0.847-7.32 2.54v0c-0.393 0.553-0.59 1.107-0.59 1.66v0c0 1.007 0.473 1.593 1.42 1.76v0c0.16 0.033 0.323 0.05 0.49 0.05v0c0.747 0 1.3-0.473 1.66-1.42v0c0.453-1.207 0.76-1.923 0.92-2.15v0c0.62-0.813 1.58-1.22 2.88-1.22v0c3.06 0.193 4.64 1.87 4.74 5.03v0 3.08c-7.647 0-12.023 1.593-13.13 4.78v0c-0.2 0.62-0.3 1.287-0.3 2v0c0 2.473 1.09 4.167 3.27 5.08v0c0.88 0.36 1.81 0.54 2.79 0.54v0c2.373 0 4.373-0.813 6-2.44v0c0.587-0.62 1.027-1.273 1.32-1.96v0c0.393 2.9 1.73 4.367 4.01 4.4zM161.72-1.46v0c-1.987 0-3.207-0.993-3.66-2.98v0c-0.1-0.46-0.15-0.967-0.15-1.52v0c0-2.18 1.253-3.563 3.76-4.15v0c1.333-0.293 3.27-0.457 5.81-0.49v0 3.91c-0.487 2.247-1.673 3.827-3.56 4.74v0c-0.753 0.327-1.487 0.49-2.2 0.49z" fill="#211f1f" fill-rule="nonzero" stroke="none" stroke-width="1" stroke-linecap="butt" stroke-linejoin="miter" stroke-miterlimit="10" stroke-dasharray="" stroke-dashoffset="0" font-family="none" font-weight="none" font-size="none" text-anchor="none" style="mix-blend-mode: normal" data-fill-palette-color="primary" opacity="1"></path></g></svg></g></svg></g><g transform="matrix(1,0,0,1,0,220.62661118530352)"><svg viewBox="0 0 373.59204639243876 16.651728078355536" height="16.651728078355536" width="373.59204639243876"><g transform="matrix(1,0,0,1,0,0)"><svg width="373.59204639243876" viewBox="0.75 -38.5 975.86 43.5" height="16.651728078355536" data-palette-color="#211f1f"><path d="M16.15 0L10.25 0 0.75-33.85 5.45-35.35 13.35-5.05 20.8-31.35 26.75-31.35 34.15-5.05 42-35.2 46.4-33.85 36.95 0 31.05 0 23.65-26.3 16.15 0ZM72.65 0L51.65 0 51.65-35 72.65-35 72.65-30.9 56.4-30.9 56.4-20.25 70.4-20.25 70.4-16.25 56.4-16.25 56.4-4.1 72.65-4.1 72.65 0ZM89.5 0.4L89.5 0.4Q86.45 0.4 83.72 0.25 81 0.1 79.4-0.1L79.4-0.1 79.4-34.9Q81.15-35.1 83.75-35.25 86.35-35.4 89.7-35.4L89.7-35.4Q96.1-35.4 99.55-32.98 103-30.55 103-26.4L103-26.4Q103-23.65 101.52-21.73 100.05-19.8 97.25-18.55L97.25-18.55Q100.65-17.35 102.4-15.23 104.15-13.1 104.15-10L104.15-10Q104.15-5.25 100.4-2.43 96.65 0.4 89.5 0.4ZM84.15-31.3L84.15-19.9 89.65-19.9Q93.6-19.9 95.92-21.55 98.25-23.2 98.25-25.8L98.25-25.8Q98.25-28.6 95.95-30.08 93.65-31.55 89.65-31.55L89.65-31.55Q88-31.55 86.65-31.48 85.3-31.4 84.15-31.3L84.15-31.3ZM89.85-3.55L89.85-3.55Q94.3-3.55 96.8-5.15 99.3-6.75 99.3-9.8L99.3-9.8Q99.3-12.8 96.85-14.5 94.4-16.2 89.85-16.2L89.85-16.2 84.15-16.2 84.15-3.85Q86.8-3.55 89.85-3.55ZM135.09 0.4L135.09 0.4Q132.24 0.4 130.12 0.25 127.99 0.1 125.89-0.1L125.89-0.1 125.89-34.9Q128.24-35.15 130.49-35.27 132.74-35.4 135.64-35.4L135.64-35.4Q140.14-35.4 143.42-34 146.69-32.6 148.82-30.15 150.94-27.7 151.97-24.48 152.99-21.25 152.99-17.55L152.99-17.55Q152.99-13.9 151.94-10.65 150.89-7.4 148.72-4.93 146.54-2.45 143.17-1.03 139.79 0.4 135.09 0.4ZM135.24-3.75L135.24-3.75Q139.74-3.75 142.59-5.5 145.44-7.25 146.79-10.38 148.14-13.5 148.14-17.55L148.14-17.55Q148.14-21.15 146.79-24.3 145.44-27.45 142.64-29.38 139.84-31.3 135.49-31.3L135.49-31.3Q134.04-31.3 132.84-31.23 131.64-31.15 130.64-31.05L130.64-31.05 130.64-4Q131.69-3.85 132.84-3.8 133.99-3.75 135.24-3.75ZM180.99 0L159.99 0 159.99-35 180.99-35 180.99-30.9 164.74-30.9 164.74-20.25 178.74-20.25 178.74-16.25 164.74-16.25 164.74-4.1 180.99-4.1 180.99 0ZM201.94 0L196.59 0 183.74-33.75 188.39-35.55 199.39-5.2 210.44-35.4 214.74-33.75 201.94 0ZM240.73 0L219.73 0 219.73-35 240.73-35 240.73-30.9 224.48-30.9 224.48-20.25 238.48-20.25 238.48-16.25 224.48-16.25 224.48-4.1 240.73-4.1 240.73 0ZM268.28 0L247.48 0 247.48-35 252.23-35 252.23-4.25 268.28-4.25 268.28 0ZM285.53 0.6L285.53 0.6Q281.63 0.6 278.58-0.83 275.53-2.25 273.4-4.73 271.28-7.2 270.15-10.5 269.03-13.8 269.03-17.55L269.03-17.55Q269.03-22.7 271-26.78 272.98-30.85 276.68-33.23 280.38-35.6 285.53-35.6L285.53-35.6Q289.38-35.6 292.45-34.2 295.53-32.8 297.68-30.3 299.83-27.8 300.95-24.55 302.08-21.3 302.08-17.55L302.08-17.55Q302.08-13.8 300.95-10.5 299.83-7.2 297.68-4.73 295.53-2.25 292.48-0.83 289.43 0.6 285.53 0.6ZM285.53-3.5L285.53-3.5Q289.38-3.5 291.98-5.35 294.58-7.2 295.9-10.38 297.23-13.55 297.23-17.55L297.23-17.55Q297.23-20.25 296.43-22.75 295.63-25.25 294.13-27.23 292.63-29.2 290.45-30.35 288.28-31.5 285.53-31.5L285.53-31.5Q281.88-31.5 279.25-29.65 276.63-27.8 275.25-24.65 273.88-21.5 273.88-17.55L273.88-17.55Q273.88-14.85 274.65-12.33 275.43-9.8 276.93-7.8 278.43-5.8 280.6-4.65 282.78-3.5 285.53-3.5ZM313.83 0L309.08 0 309.08-34.9Q311.13-35.15 313.6-35.27 316.08-35.4 318.73-35.4L318.73-35.4Q323.08-35.4 326.13-34.02 329.18-32.65 330.78-30.25 332.38-27.85 332.38-24.75L332.38-24.75Q332.38-21 330.53-18.4 328.68-15.8 325.38-14.43 322.08-13.05 317.73-13.05L317.73-13.05Q315.63-13.05 313.83-13.2L313.83-13.2 313.83 0ZM318.33-17L318.33-17Q322.78-17 325.23-19 327.68-21 327.68-24.35L327.68-24.35Q327.68-27.6 325.33-29.5 322.98-31.4 318.63-31.4L318.63-31.4Q317.28-31.4 316.08-31.35 314.88-31.3 313.83-31.2L313.83-31.2 313.83-17.25Q314.63-17.15 315.78-17.07 316.93-17 318.33-17ZM342.62 0L338.12 0 338.12-35 344.77-35 354.47-12.85 364.02-35 370.82-35 370.82 0 366.07 0 366.07-28.95 356.72-7.9 352.02-7.9 342.62-28.95 342.62 0ZM400.82 0L379.82 0 379.82-35 400.82-35 400.82-30.9 384.57-30.9 384.57-20.25 398.57-20.25 398.57-16.25 384.57-16.25 384.57-4.1 400.82-4.1 400.82 0ZM412.07 0L407.57 0 407.57-35 413.87-35 429.32-5.9 429.32-35 433.82-35 433.82 0 427.62 0 412.07-28.9 412.07 0ZM454.32 0L449.57 0 449.57-30.8 438.82-30.8 438.82-35 465.07-35 465.07-30.8 454.32-30.8 454.32 0ZM490.01 5L486.11 5 486.11-38.5 490.01-38.5 490.01 5ZM519.81 0L515.06 0 515.06-35 535.81-35 535.81-30.9 519.81-30.9 519.81-20.2 533.16-20.2 533.16-16.3 519.81-16.3 519.81 0ZM566.2-1.25L561.85 0.5 557.95-9.5 541.75-9.5 537.85 0.4 533.8-1.25 547.5-35 552.7-35 566.2-1.25ZM549.85-30.3L543.25-13.5 556.4-13.5 549.85-30.3ZM575.95 0L571.2 0 571.2-35 575.95-35 575.95 0ZM596.45 0L591.7 0 591.7-30.8 580.95-30.8 580.95-35 607.2-35 607.2-30.8 596.45-30.8 596.45 0ZM616.94 0L612.19 0 612.19-35 616.94-35 616.94-20.05 634.19-20.05 634.19-35 638.94-35 638.94 0 634.19 0 634.19-15.95 616.94-15.95 616.94 0ZM667.89 5L663.99 5 663.99-38.5 667.89-38.5 667.89 5ZM697.43 0L692.93 0 692.93-35 699.58-35 709.28-12.85 718.83-35 725.63-35 725.63 0 720.88 0 720.88-28.95 711.53-7.9 706.83-7.9 697.43-28.95 697.43 0ZM749.13 0.6L749.13 0.6Q745.23 0.6 742.18-0.83 739.13-2.25 737.01-4.73 734.88-7.2 733.76-10.5 732.63-13.8 732.63-17.55L732.63-17.55Q732.63-22.7 734.61-26.78 736.58-30.85 740.28-33.23 743.98-35.6 749.13-35.6L749.13-35.6Q752.98-35.6 756.06-34.2 759.13-32.8 761.28-30.3 763.43-27.8 764.56-24.55 765.68-21.3 765.68-17.55L765.68-17.55Q765.68-13.8 764.56-10.5 763.43-7.2 761.28-4.73 759.13-2.25 756.08-0.83 753.03 0.6 749.13 0.6ZM749.13-3.5L749.13-3.5Q752.98-3.5 755.58-5.35 758.18-7.2 759.51-10.38 760.83-13.55 760.83-17.55L760.83-17.55Q760.83-20.25 760.03-22.75 759.23-25.25 757.73-27.23 756.23-29.2 754.06-30.35 751.88-31.5 749.13-31.5L749.13-31.5Q745.48-31.5 742.86-29.65 740.23-27.8 738.86-24.65 737.48-21.5 737.48-17.55L737.48-17.55Q737.48-14.85 738.26-12.33 739.03-9.8 740.53-7.8 742.03-5.8 744.21-4.65 746.38-3.5 749.13-3.5ZM782.68 0L777.93 0 777.93-30.8 767.18-30.8 767.18-35 793.43-35 793.43-30.8 782.68-30.8 782.68 0ZM803.18 0L798.43 0 798.43-35 803.18-35 803.18 0ZM826.37 0L821.02 0 808.17-33.75 812.82-35.55 823.82-5.2 834.87-35.4 839.17-33.75 826.37 0ZM869.32-1.25L864.97 0.5 861.07-9.5 844.87-9.5 840.97 0.4 836.92-1.25 850.62-35 855.82-35 869.32-1.25ZM852.97-30.3L846.37-13.5 859.52-13.5 852.97-30.3ZM882.82 0L878.07 0 878.07-30.8 867.32-30.8 867.32-35 893.57-35 893.57-30.8 882.82-30.8 882.82 0ZM903.32 0L898.57 0 898.57-35 903.32-35 903.32 0ZM926.81 0.6L926.81 0.6Q922.91 0.6 919.86-0.83 916.81-2.25 914.69-4.73 912.56-7.2 911.44-10.5 910.31-13.8 910.31-17.55L910.31-17.55Q910.31-22.7 912.29-26.78 914.26-30.85 917.96-33.23 921.66-35.6 926.81-35.6L926.81-35.6Q930.66-35.6 933.74-34.2 936.81-32.8 938.96-30.3 941.11-27.8 942.24-24.55 943.36-21.3 943.36-17.55L943.36-17.55Q943.36-13.8 942.24-10.5 941.11-7.2 938.96-4.73 936.81-2.25 933.76-0.83 930.71 0.6 926.81 0.6ZM926.81-3.5L926.81-3.5Q930.66-3.5 933.26-5.35 935.86-7.2 937.19-10.38 938.51-13.55 938.51-17.55L938.51-17.55Q938.51-20.25 937.71-22.75 936.91-25.25 935.41-27.23 933.91-29.2 931.74-30.35 929.56-31.5 926.81-31.5L926.81-31.5Q923.16-31.5 920.54-29.65 917.91-27.8 916.54-24.65 915.16-21.5 915.16-17.55L915.16-17.55Q915.16-14.85 915.94-12.33 916.71-9.8 918.21-7.8 919.71-5.8 921.89-4.65 924.06-3.5 926.81-3.5ZM954.86 0L950.36 0 950.36-35 956.66-35 972.11-5.9 972.11-35 976.61-35 976.61 0 970.41 0 954.86-28.9 954.86 0Z" opacity="1" transform="matrix(1,0,0,1,0,0)" fill="#211f1f" class="slogan-text-1" data-fill-palette-color="secondary" id="text-1"></path></svg></g></svg></g></svg></g></svg></g><g transform="matrix(1,0,0,1,0,0.5931958481591408)"><svg viewBox="0 0 237.2643116295799 237.27833926365906" height="237.27833926365906" width="237.2643116295799"><g><svg xmlns="http://www.w3.org/2000/svg" xmlns:xlink="http://www.w3.org/1999/xlink" version="1.1" x="0" y="0" viewBox="8.085714285714285 8.098169278175142 83.79687644989184 83.80183072182487" enable-background="new 0 0 100 100" xml:space="preserve" height="237.27833926365906" width="237.2643116295799" class="icon-icon-0" data-fill-palette-color="accent" id="icon-0"><path d="M50 77.1C53.6 77.1 57.1 76.4 60.4 75 74.2 69.3 80.8 53.4 75.1 39.5 70.9 29.4 61 22.9 50 22.9 46.4 22.9 42.9 23.6 39.6 25 25.8 30.7 19.2 46.6 24.9 60.5 29.1 70.6 39 77.1 50 77.1M30.3 61.7H35.8C36.9 65 38.4 68.2 40.2 70.8 36.2 68.8 32.7 65.7 30.3 61.7M71.7 42.6C73.4 47.6 73.3 52.8 71.7 57.5H65.7C66.2 55 66.5 52.4 66.5 50 66.5 47.5 66.3 45 65.8 42.6zM62.2 50C62.2 52.4 61.9 55 61.2 57.5H52.2V42.6H61.4C62 44.9 62.2 47.4 62.2 50M48 72.2C44.9 70.8 42.1 66.6 40.3 61.7H48zM52.3 72.2V61.7H60C58.1 66.7 55.3 70.9 52.3 72.2M52.3 38.3V27.6C55.5 28.9 58.5 33 60.3 38.3zM48 27.6V38.3H40C41.8 33 44.8 28.9 48 27.6M48 42.6V57.5H39C38.4 55 38 52.4 38 50 38 47.5 38.3 45 38.8 42.6zM34.7 57.4H28.4C26.7 52.4 26.8 47.2 28.4 42.5H34.5C34 45 33.8 47.5 33.8 50 33.8 52.3 34.1 54.8 34.7 57.4M60.2 70.5C60.8 69.6 61.5 68.6 62 67.5 62.9 65.7 63.8 63.8 64.4 61.7H69.6C67.5 65.4 64.3 68.5 60.2 70.5M69.7 38.3H64.8C64.1 36 63.2 33.7 62.1 31.8 61.7 31.1 61.3 30.5 60.9 29.9 64.5 31.8 67.5 34.7 69.7 38.3M39.5 29.6C39 30.3 38.6 31 38.2 31.7 37.1 33.7 36.2 35.9 35.5 38.2H30.3C32.5 34.7 35.6 31.7 39.5 29.6M49.5 8.1C60.3 8 70.6 12 78.5 19.3V16.1C78.5 14.9 79.4 14 80.6 14S82.7 14.9 82.7 16.1L82.8 24.4C82.8 25.6 81.9 26.5 80.7 26.5L72.4 26.6C71.2 26.6 70.3 25.7 70.3 24.5S71.2 22.4 72.4 22.4H75.6C68.5 15.9 59.4 12.3 49.7 12.4 39.6 12.5 30.2 16.5 23.2 23.7 12.9 34.1 9.6 49.1 14.5 62.8 14.9 63.9 14.3 65.1 13.2 65.5 13 65.6 12.7 65.6 12.5 65.6 11.6 65.6 10.8 65.1 10.5 64.2 7.9 56.9 7.4 49 9 41.4 10.6 33.6 14.5 26.4 20.1 20.7 27.8 12.7 38.3 8.2 49.5 8.1M76.9 76.3C87.1 65.9 90.3 50.9 85.4 37.2 85 36.1 85.6 34.9 86.7 34.5S89 34.7 89.4 35.8C92 43.1 92.6 51 91 58.6 89.4 66.4 85.5 73.6 79.9 79.3 72.1 87.3 61.6 91.8 50.4 91.9H49.9C39.2 91.9 29.2 87.9 21.4 80.7V83.9C21.4 85.1 20.5 86 19.3 86S17.2 85.1 17.2 83.9L17.1 75.6C17.1 75 17.3 74.5 17.7 74.1S18.6 73.5 19.2 73.5L27.5 73.4C28.7 73.4 29.6 74.3 29.6 75.5S28.7 77.6 27.5 77.6H24.3C39.4 91.4 62.7 90.9 76.9 76.3" fill="#211f1f" data-fill-palette-color="accent"></path></svg></g></svg></g></svg></g><defs></defs></svg><rect width="395.52" height="138.17483971656745" fill="none" stroke="none" visibility="hidden"></rect></g></svg></g></svg>